<?xml version="1.0" encoding="UTF-8" standalone="no"?>
<!-- Created with Inkscape (http://www.inkscape.org/) -->

<svg
   xmlns:dc="http://purl.org/dc/elements/1.1/"
   xmlns:cc="http://creativecommons.org/ns#"
   xmlns:rdf="http://www.w3.org/1999/02/22-rdf-syntax-ns#"
   xmlns:svg="http://www.w3.org/2000/svg"
   xmlns="http://www.w3.org/2000/svg"
   xmlns:sodipodi="http://sodipodi.sourceforge.net/DTD/sodipodi-0.dtd"
   xmlns:inkscape="http://www.inkscape.org/namespaces/inkscape"
   width="213.61531mm"
   height="58.508438mm"
   viewBox="0 0 756.90465 207.31337"
   id="svg2"
   version="1.1"
   inkscape:version="0.91 r13725"
   sodipodi:docname="descargar.svg">
  <defs
     id="defs4">
    <filter
       inkscape:collect="always"
       style="color-interpolation-filters:sRGB"
       id="filter4167"
       x="-0.059626963"
       width="1.1192539"
       y="-0.059604507"
       height="1.1192091">
      <feGaussianBlur
         inkscape:collect="always"
         stdDeviation="4.600277"
         id="feGaussianBlur4169" />
    </filter>
    <filter
       inkscape:collect="always"
       style="color-interpolation-filters:sRGB"
       id="filter4171"
       x="-0.020783488"
       width="1.041567"
       y="-0.062350467"
       height="1.1247009">
      <feGaussianBlur
         inkscape:collect="always"
         stdDeviation="4.600277"
         id="feGaussianBlur4173" />
    </filter>
  </defs>
  <sodipodi:namedview
     id="base"
     pagecolor="#ffffff"
     bordercolor="#666666"
     borderopacity="1.0"
     inkscape:pageopacity="0.0"
     inkscape:pageshadow="2"
     inkscape:zoom="0.98994949"
     inkscape:cx="359.53206"
     inkscape:cy="-7.8173708"
     inkscape:document-units="px"
     inkscape:current-layer="layer1"
     showgrid="false"
     fit-margin-top="0"
     fit-margin-left="0"
     fit-margin-right="0"
     fit-margin-bottom="0"
     inkscape:window-width="1366"
     inkscape:window-height="684"
     inkscape:window-x="0"
     inkscape:window-y="31"
     inkscape:window-maximized="1" />
  <metadata
     id="metadata7">
    <rdf:RDF>
      <cc:Work
         rdf:about="">
        <dc:format>image/svg+xml</dc:format>
        <dc:type
           rdf:resource="http://purl.org/dc/dcmitype/StillImage" />
        <dc:title></dc:title>
      </cc:Work>
    </rdf:RDF>
  </metadata>
  <g
     inkscape:label="Layer 1"
     inkscape:groupmode="layer"
     id="layer1"
     transform="translate(10.839174,-379.04725)">
    <path
       inkscape:connector-curvature="0"
       id="path4155"
       d="m 79.19908,575.07988 c -1.1,-0.25732 -5.06257,-1.16767 -8.80571,-2.023 C 50.209024,568.44464 29.635704,554.55276 17.127084,537.08949 11.354114,529.02984 5.222874,516.01942 2.551901,506.16111 -0.323668,495.54765 -0.620628,471.74273 1.992673,461.3322 c 8.435911,-33.60588 34.137781,-59.7172 67.773241,-68.85293 11.791536,-3.2027 34.547066,-3.18571 46.433166,0.0347 32.97611,8.93442 58.09986,34.28933 67.11411,67.73164 2.90496,10.77723 2.68328,36.13153 -0.4102,46.91554 -7.42786,25.89384 -25.32916,47.5807 -48.70391,59.00326 -14.13226,6.90602 -21.58938,8.65871 -38.5,9.04885 -7.975,0.18398 -15.4,0.12398 -16.5,-0.13334 z m 36,-26.92718 c 20.54023,-4.27464 35.22926,-12.53897 38.387,-21.59727 1.25626,-3.60373 0.19374,-3.69311 -2.96269,-0.24921 -3.90212,4.25752 -17.28266,9.98135 -28.92431,12.37303 -14.29578,2.93695 -42.13947,2.46258 -54.365946,-0.92622 -13.3712,-3.70608 -23.99778,-10.02703 -27.16997,-16.16138 -1.7356,-3.35628 -1.91734,-10.2151 -0.34835,-13.14678 1.10049,-2.05629 1.07372,-2.05485 -1.96023,0.10551 -9.67395,6.88846 -10.81216,17.5067 -2.74171,25.57715 13.33419,13.3342 51.385816,19.99802 80.086206,14.02517 z m -6.25925,-24.21609 c 16.03012,-7.51896 26.4026,-25.96704 24.25672,-43.14204 l -0.67487,-5.40147 4.5887,4.52379 c 4.27425,4.21378 4.5887,4.87737 4.5887,9.68366 0,6.30599 -2.03613,10.51076 -6.10986,12.61737 -4.0871,2.11352 -3.08344,2.8416 2.02205,1.46684 8.61249,-2.31911 13.97252,-10.08953 12.65278,-18.34272 -1.16702,-7.29814 -8.1494,-13.68093 -14.9661,-13.68093 -1.47884,0 -2.59887,-0.56582 -2.59887,-1.31291 0,-3.57574 -9.64552,-9.50398 -19.70432,-12.11047 -8.64715,-2.2407 -9.62598,-1.94356 -3.29893,1.00146 7.13453,3.32088 9.00325,5.10111 9.00325,8.57691 0,3.20378 -0.89437,3.46811 -4.83669,1.42946 -8.18402,-4.23212 -29.85795,-5.85687 -40.64592,-3.04696 -7.132176,1.85769 -8.816806,3.11591 -8.236476,6.15169 0.60238,3.15114 -0.89006,2.96003 -8.70825,-1.11508 -6.87722,-3.58466 -8.30907,-3.2196 -4.0555,1.03397 6.13419,6.13419 21.890476,10.41242 41.034906,11.142 15.48609,0.59016 25.29227,-0.8049 33.00532,-4.69544 6.28559,-3.17052 6.36942,-3.03308 3.9097,6.41041 -5.91362,22.70392 -28.62295,36.71465 -50.44244,31.12092 -11.860436,-3.04058 -22.273266,-11.31501 -27.449886,-21.81273 l -2.60032,-5.27323 0.60876,4 c 1.51442,9.95078 9.98627,22.66246 18.83275,28.2578 7.575806,4.79165 13.283796,6.23019 23.584046,5.94369 8.25847,-0.2297 10.38093,-0.67743 16.24075,-3.42599 z M 79.6518,450.32995 c 2.73655,-9.77398 -1.26962,-14.35661 -15.506606,-17.73789 -10.38669,-2.46683 -11.82626,-3.11098 -16.19611,-7.24711 l -3.25,-3.07617 0,2.72828 c 0,4.60523 2.62067,9.41653 6.11271,11.22234 1.79864,0.93011 6.41326,2.76012 10.25471,4.06668 10.590296,3.60199 11.632576,4.52239 11.632576,10.27236 0,2.66817 -0.66796,6.82029 -1.48434,9.22694 l -1.484336,4.37573 4.335406,-4.68225 c 2.62804,-2.83829 4.82791,-6.4413 5.58599,-9.14891 z m 18.00692,-10.30637 c 2.619,-5.57167 2.60224,-10.37844 -0.0479,-13.74759 -2.76406,-3.51389 -5.95455,-5.04281 -14.57803,-6.98594 -9.91197,-2.23347 -12.13592,-3.20569 -15.451056,-6.75456 l -2.88265,-3.08589 0,4.24705 c 0,5.95435 3.95921,9.38729 15.416366,13.36717 11.79758,4.09814 13.45268,6.13577 11.62359,14.31007 -0.71223,3.18297 -1.53201,6.46222 -1.82173,7.28722 -1.12551,3.20491 5.81474,-4.53871 7.74141,-8.63753 z m -71.677616,-5.5408 c 3.18011,-4.23983 8.58011,-10.15398 12,-13.14257 6.1542,-5.37807 21.16401,-15.6791 22.84628,-15.6791 0.47943,0 0.8717,-0.40787 0.8717,-0.90638 0,-0.49851 -1.0125,-0.67222 -2.25,-0.38603 -3.25414,0.75258 -16.18996,6.62418 -16.58334,7.52721 -0.18333,0.42086 -0.86249,0.7652 -1.50924,0.7652 -2.03325,0 -16.07088,15.22244 -19.94985,21.63366 -2.04107,3.37352 -3.95684,7.64852 -4.25727,9.5 l -0.54624,3.36634 1.79797,-2.48478 c 0.98888,-1.36663 4.39988,-5.95373 7.57999,-10.19355 z"
       style="fill:#000000;fill-opacity:0.23469388;filter:url(#filter4167)" />
    <rect
       ry="45.795078"
       rx="45.795078"
       y="394.16678"
       x="203.80191"
       height="177.0743"
       width="531.2229"
       id="rect4157"
       style="opacity:1;fill:#000000;fill-opacity:0.23469388;fill-rule:nonzero;stroke:#000000;stroke-width:1.0685519;stroke-miterlimit:10;stroke-dasharray:none;stroke-opacity:1;filter:url(#filter4171)" />
    <path
       style="fill:#462202;fill-opacity:1"
       d="m 81.19908,571.07988 c -1.1,-0.25732 -5.06257,-1.16767 -8.80571,-2.023 C 52.209024,564.44464 31.635704,550.55276 19.127084,533.08949 13.354114,525.02984 7.222874,512.01942 4.551901,502.16111 1.676332,491.54765 1.379372,467.74273 3.992673,457.3322 c 8.435911,-33.60588 34.137781,-59.7172 67.773241,-68.85293 11.791536,-3.2027 34.547066,-3.18571 46.433166,0.0347 32.97611,8.93442 58.09986,34.28933 67.11411,67.73164 2.90496,10.77723 2.68328,36.13153 -0.4102,46.91554 -7.42786,25.89384 -25.32916,47.5807 -48.70391,59.00326 -14.13226,6.90602 -21.58938,8.65871 -38.5,9.04885 -7.975,0.18398 -15.4,0.12398 -16.5,-0.13334 z m 36,-26.92718 c 20.54023,-4.27464 35.22926,-12.53897 38.387,-21.59727 1.25626,-3.60373 0.19374,-3.69311 -2.96269,-0.24921 -3.90212,4.25752 -17.28266,9.98135 -28.92431,12.37303 -14.29578,2.93695 -42.13947,2.46258 -54.365946,-0.92622 -13.3712,-3.70608 -23.99778,-10.02703 -27.16997,-16.16138 -1.7356,-3.35628 -1.91734,-10.2151 -0.34835,-13.14678 1.10049,-2.05629 1.07372,-2.05485 -1.96023,0.10551 -9.67395,6.88846 -10.81216,17.5067 -2.74171,25.57715 13.33419,13.3342 51.385816,19.99802 80.086206,14.02517 z m -6.25925,-24.21609 c 16.03012,-7.51896 26.4026,-25.96704 24.25672,-43.14204 l -0.67487,-5.40147 4.5887,4.52379 c 4.27425,4.21378 4.5887,4.87737 4.5887,9.68366 0,6.30599 -2.03613,10.51076 -6.10986,12.61737 -4.0871,2.11352 -3.08344,2.8416 2.02205,1.46684 8.61249,-2.31911 13.97252,-10.08953 12.65278,-18.34272 -1.16702,-7.29814 -8.1494,-13.68093 -14.9661,-13.68093 -1.47884,0 -2.59887,-0.56582 -2.59887,-1.31291 0,-3.57574 -9.64552,-9.50398 -19.70432,-12.11047 -8.64715,-2.2407 -9.62598,-1.94356 -3.29893,1.00146 7.13453,3.32088 9.00325,5.10111 9.00325,8.57691 0,3.20378 -0.89437,3.46811 -4.83669,1.42946 -8.18402,-4.23212 -29.85795,-5.85687 -40.64592,-3.04696 -7.132176,1.85769 -8.816806,3.11591 -8.236476,6.15169 0.60238,3.15114 -0.89006,2.96003 -8.70825,-1.11508 -6.87722,-3.58466 -8.30907,-3.2196 -4.0555,1.03397 6.13419,6.13419 21.890476,10.41242 41.034906,11.142 15.48609,0.59016 25.29227,-0.8049 33.00532,-4.69544 6.28559,-3.17052 6.36942,-3.03308 3.9097,6.41041 -5.91362,22.70392 -28.62295,36.71465 -50.44244,31.12092 -11.860436,-3.04058 -22.273266,-11.31501 -27.449886,-21.81273 l -2.60032,-5.27323 0.60876,4 c 1.51442,9.95078 9.98627,22.66246 18.83275,28.2578 7.575806,4.79165 13.283796,6.23019 23.584046,5.94369 8.25847,-0.2297 10.38093,-0.67743 16.24075,-3.42599 z M 81.6518,446.32995 c 2.73655,-9.77398 -1.26962,-14.35661 -15.506606,-17.73789 -10.38669,-2.46683 -11.82626,-3.11098 -16.19611,-7.24711 l -3.25,-3.07617 0,2.72828 c 0,4.60523 2.62067,9.41653 6.11271,11.22234 1.79864,0.93011 6.41326,2.76012 10.25471,4.06668 10.590296,3.60199 11.632576,4.52239 11.632576,10.27236 0,2.66817 -0.66796,6.82029 -1.48434,9.22694 l -1.484336,4.37573 4.335406,-4.68225 c 2.62804,-2.83829 4.82791,-6.4413 5.58599,-9.14891 z m 18.00692,-10.30637 c 2.619,-5.57167 2.60224,-10.37844 -0.0479,-13.74759 -2.76406,-3.51389 -5.95455,-5.04281 -14.57803,-6.98594 -9.91197,-2.23347 -12.13592,-3.20569 -15.451056,-6.75456 l -2.88265,-3.08589 0,4.24705 c 0,5.95435 3.95921,9.38729 15.416366,13.36717 11.79758,4.09814 13.45268,6.13577 11.62359,14.31007 -0.71223,3.18297 -1.53201,6.46222 -1.82173,7.28722 -1.12551,3.20491 5.81474,-4.53871 7.74141,-8.63753 z m -71.677616,-5.5408 c 3.18011,-4.23983 8.58011,-10.15398 12,-13.14257 6.1542,-5.37807 21.16401,-15.6791 22.84628,-15.6791 0.47943,0 0.8717,-0.40787 0.8717,-0.90638 0,-0.49851 -1.0125,-0.67222 -2.25,-0.38603 -3.25414,0.75258 -16.18996,6.62418 -16.58334,7.52721 -0.18333,0.42086 -0.86249,0.7652 -1.50924,0.7652 -2.03325,0 -16.07088,15.22244 -19.94985,21.63366 -2.04107,3.37352 -3.95684,7.64852 -4.25727,9.5 l -0.54624,3.36634 1.79797,-2.48478 c 0.98888,-1.36663 4.39988,-5.95373 7.57999,-10.19355 z"
       id="path4147"
       inkscape:connector-curvature="0" />
    <rect
       style="opacity:1;fill:#462202;fill-opacity:1;fill-rule:nonzero;stroke:#000000;stroke-width:1.0685519;stroke-miterlimit:10;stroke-dasharray:none;stroke-opacity:1"
       id="rect4149"
       width="531.2229"
       height="177.0743"
       x="205.80191"
       y="390.16678"
       rx="45.795078"
       ry="45.795078" />
    <text
       xml:space="preserve"
       style="font-style:normal;font-weight:normal;font-size:77.4043808px;line-height:125%;font-family:sans-serif;letter-spacing:0px;word-spacing:0px;fill:#ffffff;fill-opacity:1;stroke:none;stroke-width:1px;stroke-linecap:butt;stroke-linejoin:miter;stroke-opacity:1"
       x="279.81213"
       y="495.73288"
       id="text4151"
       sodipodi:linespacing="125%"><tspan
         sodipodi:role="line"
         id="tspan4153"
         x="279.81213"
         y="495.73288"
         style="font-style:normal;font-variant:normal;font-weight:normal;font-stretch:normal;font-family:'TeX Gyre Bonum';-inkscape-font-specification:'TeX Gyre Bonum';fill:#ffffff">Descargar</tspan></text>
  </g>
</svg>
