<?xml version="1.0" encoding="UTF-8" standalone="no"?>
<!-- Created with Inkscape (http://www.inkscape.org/) -->

<svg
   xmlns:dc="http://purl.org/dc/elements/1.1/"
   xmlns:cc="http://creativecommons.org/ns#"
   xmlns:rdf="http://www.w3.org/1999/02/22-rdf-syntax-ns#"
   xmlns:svg="http://www.w3.org/2000/svg"
   xmlns="http://www.w3.org/2000/svg"
   xmlns:xlink="http://www.w3.org/1999/xlink"
   xmlns:sodipodi="http://sodipodi.sourceforge.net/DTD/sodipodi-0.dtd"
   xmlns:inkscape="http://www.inkscape.org/namespaces/inkscape"
   id="svg2"
   version="1.1"
   inkscape:version="0.91 r13725"
   width="131.12131pt"
   height="45.066914pt"
   viewBox="0 0 163.90164 56.333641"
   sodipodi:docname="LogoUniandes.svg">
  <metadata
     id="metadata8">
    <rdf:RDF>
      <cc:Work
         rdf:about="">
        <dc:format>image/svg+xml</dc:format>
        <dc:type
           rdf:resource="http://purl.org/dc/dcmitype/StillImage" />
        <dc:title></dc:title>
      </cc:Work>
    </rdf:RDF>
  </metadata>
  <defs
     id="defs6">
    <linearGradient
       id="linearGradient5367">
      <stop
         offset="0"
         style="stop-color:#000000;stop-opacity:1"
         id="stop5369" />
      <stop
         offset="1"
         style="stop-color:#ffffff;stop-opacity:0"
         id="stop5371" />
    </linearGradient>
    <linearGradient
       id="linearGradient5217">
      <stop
         offset="0"
         style="stop-color:#ffffff;stop-opacity:1"
         id="stop5219" />
      <stop
         offset="1"
         style="stop-color:#ffffff;stop-opacity:0"
         id="stop5221" />
    </linearGradient>
    <linearGradient
       id="linearGradient4448">
      <stop
         offset="0"
         style="stop-color:#000000;stop-opacity:1"
         id="stop4450" />
      <stop
         offset="1"
         style="stop-color:#000000;stop-opacity:0"
         id="stop4452" />
    </linearGradient>
    <linearGradient
       id="linearGradient4388">
      <stop
         offset="0"
         style="stop-color:#000003;stop-opacity:1"
         id="stop4390" />
      <stop
         offset="1"
         style="stop-color:#000003;stop-opacity:0"
         id="stop4392" />
    </linearGradient>
    <linearGradient
       id="linearGradient4300">
      <stop
         offset="0"
         style="stop-color:#333333;stop-opacity:1"
         id="stop4302" />
      <stop
         offset="1"
         style="stop-color:#494141;stop-opacity:0"
         id="stop4304" />
    </linearGradient>
    <linearGradient
       id="linearGradient4256">
      <stop
         offset="0"
         style="stop-color:#ffffff;stop-opacity:0"
         id="stop4258" />
      <stop
         offset="1"
         style="stop-color:#000000;stop-opacity:0"
         id="stop4260" />
    </linearGradient>
    <linearGradient
       id="linearGradient4244">
      <stop
         offset="0"
         style="stop-color:#4a4b4d;stop-opacity:1"
         id="stop4246" />
      <stop
         offset="1"
         style="stop-color:#ffffff;stop-opacity:0.5"
         id="stop4248" />
    </linearGradient>
    <linearGradient
       id="linearGradient18751">
      <stop
         offset="0"
         style="stop-color:#0e0912;stop-opacity:1"
         id="stop18753" />
      <stop
         offset="1"
         style="stop-color:#b50912;stop-opacity:0"
         id="stop18755" />
    </linearGradient>
    <filter
       style="color-interpolation-filters:sRGB"
       id="filter4450"
       height="1.0374545"
       width="1.0668108"
       y="-0.018727273"
       x="-0.033405405">
      <feGaussianBlur
         stdDeviation="12.485486"
         id="feGaussianBlur4452" />
    </filter>
    <clipPath
       id="clipPath4807">
      <rect
         style="fill:#399c8a;fill-opacity:0;stroke:#b5b2b0;stroke-width:2.84505486;stroke-miterlimit:4;stroke-dasharray:none;stroke-opacity:1"
         id="rect4809"
         y="1904.8713"
         x="614.23053"
         height="848.6651"
         width="771.32532" />
    </clipPath>
    <clipPath
       id="clipPath9972">
      <rect
         style="fill:#399c8a;fill-opacity:0;stroke:#b5b2b0;stroke-width:2.98200011;stroke-miterlimit:4;stroke-dasharray:none;stroke-opacity:1"
         id="rect9974"
         y="2399.9146"
         x="17.677664"
         height="932.4975"
         width="760.13977" />
    </clipPath>
    <linearGradient
       gradientTransform="matrix(1.2855981,0,0,1.0462917,2137.4405,-2202.8154)"
       gradientUnits="userSpaceOnUse"
       xlink:href="#linearGradient18751"
       id="linearGradient18723"
       y2="2486.7224"
       x2="-671.27557"
       y1="2485.6174"
       x1="-754.15527" />
    <linearGradient
       gradientTransform="translate(-1.316028e-7,-0.27621379)"
       gradientUnits="userSpaceOnUse"
       xlink:href="#linearGradient18751"
       id="linearGradient18915"
       y2="394.87128"
       x2="1380.411"
       y1="289.37305"
       x1="1319.9672" />
    <linearGradient
       gradientUnits="userSpaceOnUse"
       xlink:href="#linearGradient4448"
       id="linearGradient18931"
       y2="394.59506"
       x2="1380.411"
       y1="461.93747"
       x1="1296.8899" />
    <clipPath
       id="clipPath4135">
      <path
         inkscape:connector-curvature="0"
         style="fill:none;stroke:#000000;stroke-width:1px;stroke-linecap:butt;stroke-linejoin:miter;stroke-opacity:1"
         id="path4137"
         d="m -1352.9909,-55.545816 0.1667,133.91041 c 0,0 2.1559,-0.2206 3.6084,-0.78125 1.4525,-0.56065 3.1182,-1.84967 4.3639,-3.17239 1.2457,-1.32272 2.8271,-4.91632 2.8271,-4.91632 l 6.25,-0.3886 0.1381,-125.11644 z m 18.8582,-158.779864 -17.6777,0 -0.2762,133.825494 c 0,0 4.86,0.21229 7.0435,-0.96675 2.1835,-1.17904 3.8961,-3.47883 5.9386,-4.28131 2.0424,-0.80248 4.2813,0.1381 4.2813,0.1381 z m 546.4048,157.626764 c 0.3906,1.5625 -0.8266,125 -0.8266,125 0,0 5.445,-0.41228 5.445,1.15022 0,1.5625 2.2156,3.69831 4.1134,5.39766 1.8978,1.69935 6.9169,3.10131 6.9169,3.10131 l 1.2863,-128.10131 0,-0.78125 0,-4.6875 -12.8907,-0.61944 z m 0.9193,-155.952124 c 0,0 -2.3683,127.443094 -0.9765,127.734384 2.0996,0.43945 5.4687,0.43945 5.4687,0.43945 l 2.1973,2.97852 c 0,0 1.828,1.60158 3.2715,1.85547 1.6103,0.28324 6.8359,0.58593 6.8359,0.58593 l 0.7813,-133.203124 z m -546.4453,312.7526 c 0,0 -1.8491,3.9704 -3.9975,4.16571 -2.1484,0.19531 -6.6429,1.19845 -10.3126,2.07244 -1.0231,0.24369 -8.2743,1.35028 -9.3414,2.81528 -0.7076,0.97143 -1.2389,4.14692 -1.2389,4.14692 0,0 -8.1341,0.39063 -8.9154,-0.39062 -0.7812,-0.78125 -0.2762,-4.76841 -1.2527,-5.94028 -0.9766,-1.17188 -1.9532,-1.20539 -2.1485,-2.57257 -0.1953,-1.36719 -0.5859,-18.16407 -0.5859,-18.16407 l 1.2641,-317.03953 2.8835,-2.26668 0,-6.56008 3.4695,-1.38801 c 0,0 15.8204,-0.57769 16.211,-0.57769 0.3906,0 3.7109,-2.14844 3.7109,-2.14844 l 25.3907,-0.39062 38.4765,-13.37891 3.9063,-5.46875 c 0,0 18.5547,-1.17187 19.1406,10e-6 0.5859,1.17187 5.8594,5.07812 5.8594,5.07812 l 376.20535,0.89566 2.1134,-1.34929 c 0,0 0.8037,-1.23231 1.9645,-2.7384 1.1608,-1.50609 18.3653,-0.72106 20.3835,0.11442 2.0183,0.83548 1.5498,1.22526 3.0109,3.74091 1.1321,1.94895 0.6937,1.42209 2.4934,2.65905 1.7997,1.23696 38.1013,12.74224 42.9351,13.15656 4.8338,0.41432 16.5813,-1.43842 19.6803,0.34526 3.0989,1.78368 7.6649,1.86445 7.6649,1.86445 0,0 16.1951,-0.53175 17.6776,0.27621 1.4825,0.80796 1.0621,2.94366 1.1209,4.80629 0.064,2.02714 0.2257,3.48012 0.2257,3.48012 0,0 1.6918,-0.27622 1.968,0.82864 0.2107,0.84289 -0.9853,194.55951 -1.5642,286.37185 -0.18,28.53387 0.2099,46.73897 -0.3003,47.2251 -0.5102,0.48613 -1.5946,0.83737 -2.0855,1.39899 -0.544,0.62235 -0.4694,1.43221 -0.4694,1.43221 0,0 0.061,5.18793 -0.656,5.6969 -0.7174,0.50897 -2.3824,0.65601 -4.5921,0.65601 -2.2097,0 -3.6858,0.0172 -4.9028,-1.17391 -1.217,-1.19116 -0.6981,-2.90328 -2.1406,-4.07415 -1.4425,-1.17087 0.4143,-0.82864 -3.1765,-0.82864 -3.5907,0 -17.1252,-2.76214 -18.2301,-3.31456 -1.1048,-0.55243 -2.257,-4.10969 -2.257,-4.10969 l -17.9757,-0.37878 c 0,0 -0.16479,5.06413 -0.92768,8.64352 -0.82869,3.88805 -1.59456,4.15996 -2.35619,5.42662 -1.31226,2.18243 -5.47923,5.089 -7.44093,5.81724 -1.9617,0.72823 1.0574,0.27621 -2.2572,0.27621 -3.3146,0 -26.14239,1.01887 -28.90189,-0.66684 -2.7595,-1.68571 -4.99592,-2.12277 -6.35372,-3.83145 -1.3578,-1.70868 -1.58094,-0.98439 -2.99344,-6.23657 -1.4125,-5.25218 -0.42585,-7.70592 -0.42585,-7.70592 l -400.56875,-0.843283 c 0,0 0.694,5.635163 -1.1255,10.303323 -1.8196,4.66816 -5.2735,10.35156 -8.7891,10.35156 -3.5156,0 -27.1275,-0.29492 -30.5664,-0.92773 -3.4389,-0.63282 -5.7284,-2.95307 -7.0312,-5.07812 -1.3029,-2.12506 -1.4169,-2.99034 -1.9532,-5.46875 -0.5362,-2.47841 -1.8554,-9.22852 -1.8554,-9.22852 z" />
    </clipPath>
    <filter
       style="color-interpolation-filters:sRGB"
       id="filter4193">
      <feGaussianBlur
         stdDeviation="2.2520583"
         id="feGaussianBlur4195" />
    </filter>
    <linearGradient
       gradientUnits="userSpaceOnUse"
       xlink:href="#linearGradient4244"
       id="linearGradient4254"
       y2="419.70975"
       x2="1404.1785"
       y1="444.56897"
       x1="1348.8536" />
    <linearGradient
       gradientUnits="userSpaceOnUse"
       xlink:href="#linearGradient4256"
       id="linearGradient4262"
       y2="419.70975"
       x2="1404.1785"
       y1="451.19809"
       x1="1617.8856" />
    <linearGradient
       gradientTransform="matrix(-1,0,0,1,3757.8773,1.75)"
       gradientUnits="userSpaceOnUse"
       xlink:href="#linearGradient4388"
       id="linearGradient4404"
       y2="465.72266"
       x2="1485.2656"
       y1="467.28516"
       x1="1341.1117" />
    <filter
       style="color-interpolation-filters:sRGB"
       id="filter4468">
      <feGaussianBlur
         stdDeviation="2.9434099"
         id="feGaussianBlur4470" />
    </filter>
    <filter
       style="color-interpolation-filters:sRGB"
       id="filter4472">
      <feGaussianBlur
         stdDeviation="2.1523184"
         id="feGaussianBlur4474" />
    </filter>
    <filter
       style="color-interpolation-filters:sRGB"
       id="filter4476">
      <feGaussianBlur
         stdDeviation="2.1523184"
         id="feGaussianBlur4478" />
    </filter>
    <filter
       style="color-interpolation-filters:sRGB"
       id="filter4554">
      <feBlend
         id="feBlend4556"
         mode="multiply"
         in2="BackgroundImage" />
    </filter>
    <linearGradient
       gradientUnits="userSpaceOnUse"
       xlink:href="#linearGradient4388"
       id="linearGradient5021"
       y2="465.72266"
       x2="1485.2656"
       y1="467.28516"
       x1="1341.1117" />
    <linearGradient
       gradientTransform="matrix(-1,0,0,1,3760.1186,4.8481187)"
       gradientUnits="userSpaceOnUse"
       xlink:href="#linearGradient4388"
       id="linearGradient5023"
       y2="465.72266"
       x2="1485.2656"
       y1="467.28516"
       x1="1341.1117" />
    <linearGradient
       gradientUnits="userSpaceOnUse"
       xlink:href="#linearGradient4448"
       id="linearGradient5025"
       y2="255.83176"
       x2="1949.3773"
       y1="-38.059498"
       x1="1941.1602" />
    <linearGradient
       gradientTransform="matrix(0.74421894,0.01273206,-0.01273206,0.74421894,481.80227,183.62767)"
       gradientUnits="userSpaceOnUse"
       xlink:href="#linearGradient4244"
       id="linearGradient5037"
       y2="447.69397"
       x2="1588.9897"
       y1="446.77869"
       x1="1399.6769" />
    <linearGradient
       gradientTransform="matrix(0.73885041,0,0,0.60131783,2146.5144,-952.79212)"
       gradientUnits="userSpaceOnUse"
       xlink:href="#linearGradient18751"
       id="linearGradient5039"
       y2="2486.7224"
       x2="-671.27557"
       y1="2485.6174"
       x1="-754.15527" />
    <linearGradient
       gradientTransform="matrix(0.47548207,0,0,0.5186738,973.64631,197.79314)"
       gradientUnits="userSpaceOnUse"
       xlink:href="#linearGradient4300"
       id="linearGradient5041"
       y2="314.14062"
       x2="1875.1616"
       y1="341.20956"
       x1="1761.7083" />
    <linearGradient
       gradientTransform="matrix(0.50005317,0,0,0.74882232,959.18062,171.54423)"
       gradientUnits="userSpaceOnUse"
       xlink:href="#linearGradient4244"
       id="linearGradient5043"
       y2="447.69397"
       x2="1588.9897"
       y1="446.77869"
       x1="1399.6769" />
    <linearGradient
       gradientTransform="matrix(0.57471337,0,0,0.57471337,918.09869,313.19529)"
       gradientUnits="userSpaceOnUse"
       xlink:href="#linearGradient4448"
       id="linearGradient5045"
       y2="394.59506"
       x2="1380.411"
       y1="461.93747"
       x1="1296.8899" />
    <linearGradient
       gradientTransform="matrix(0.57471337,0,0,0.57471337,918.09869,313.03655)"
       gradientUnits="userSpaceOnUse"
       xlink:href="#linearGradient18751"
       id="linearGradient5047"
       y2="394.87128"
       x2="1380.411"
       y1="289.37305"
       x1="1319.9672" />
    <linearGradient
       gradientUnits="userSpaceOnUse"
       xlink:href="#linearGradient4448"
       id="linearGradient5049"
       y2="506.47595"
       x2="2183.7827"
       y1="507.58078"
       x1="2043.3882" />
    <clipPath
       id="clipPath5070">
      <rect
         style="fill:#8e9090;fill-opacity:1;stroke:none"
         id="rect5072"
         y="-423.63782"
         x="-101.93453"
         height="1476"
         width="2544" />
    </clipPath>
    <filter
       style="color-interpolation-filters:sRGB"
       id="filter5197">
      <feBlend
         id="feBlend5199"
         mode="lighten"
         in2="BackgroundImage" />
    </filter>
    <linearGradient
       gradientTransform="translate(0,423.63782)"
       gradientUnits="userSpaceOnUse"
       xlink:href="#linearGradient5217"
       id="linearGradient5223"
       y2="933.08063"
       x2="937.7132"
       y1="-313.19507"
       x1="2459.7249" />
    <clipPath
       id="clipPath5351">
      <rect
         style="fill:#8e9090;fill-opacity:1;stroke:none"
         id="rect5353"
         y="-423.63782"
         x="0"
         height="1476"
         width="2544" />
    </clipPath>
    <linearGradient
       gradientUnits="userSpaceOnUse"
       xlink:href="#linearGradient5367"
       id="linearGradient5373"
       y2="1001.4352"
       x2="1030.5511"
       y1="1168.6227"
       x1="1031.25" />
    <filter
       style="color-interpolation-filters:sRGB"
       id="filter5391">
      <feGaussianBlur
         stdDeviation="2.667108"
         id="feGaussianBlur5393" />
    </filter>
    <filter
       style="color-interpolation-filters:sRGB"
       id="filter5411">
      <feBlend
         id="feBlend5413"
         mode="darken"
         in2="BackgroundImage" />
    </filter>
    <clipPath
       id="clipPath4658"
       clipPathUnits="userSpaceOnUse">
      <rect
         y="40.049629"
         x="43.319881"
         height="634.16718"
         width="480.20749"
         id="rect4660"
         style="opacity:1;fill:#ffff00;fill-opacity:1;fill-rule:nonzero;stroke:#000000;stroke-width:1;stroke-miterlimit:10;stroke-dasharray:none;stroke-opacity:1" />
    </clipPath>
    <clipPath
       id="clipPath4662"
       clipPathUnits="userSpaceOnUse">
      <rect
         y="40.049629"
         x="43.319881"
         height="634.16718"
         width="480.20749"
         id="rect4664"
         style="opacity:1;fill:#ffff00;fill-opacity:1;fill-rule:nonzero;stroke:#000000;stroke-width:1;stroke-miterlimit:10;stroke-dasharray:none;stroke-opacity:1" />
    </clipPath>
  </defs>
  <sodipodi:namedview
     pagecolor="#ffffff"
     bordercolor="#666666"
     borderopacity="1"
     objecttolerance="10"
     gridtolerance="10"
     guidetolerance="10"
     inkscape:pageopacity="0"
     inkscape:pageshadow="2"
     inkscape:window-width="1366"
     inkscape:window-height="684"
     id="namedview4"
     showgrid="false"
     fit-margin-top="4"
     fit-margin-left="4"
     fit-margin-right="4"
     fit-margin-bottom="4"
     inkscape:zoom="2.0728794"
     inkscape:cx="48.099155"
     inkscape:cy="11.103209"
     inkscape:window-x="0"
     inkscape:window-y="31"
     inkscape:window-maximized="1"
     inkscape:current-layer="svg2"
     units="pt" />
  <g
     id="g4246"
     transform="matrix(1.7484393,0,0,1.7484393,3.2515607,-11.260485)">
    <path
       id="path4248"
       d="m 1,10.6 c 0,0 6,-1.3 11,-1.3 5,0 11.3,1.3 11.3,1.3 0,0 0,16.8 0,19.3 0,1.6 -1,2.4 -1.3,2.7 -0.8,0.6 -4.2,3.2 -9.9,3.2 C 6.8,35.8 3.5,33.5 2.2,32.6 1.7,32.1 1,31.2 1,29.9 1,27.8 1,10.6 1,10.6 Z"
       inkscape:connector-curvature="0"
       style="clip-rule:evenodd;fill:#fff100;fill-rule:evenodd" />
    <g
       id="g4250">
      <g
         id="g4252">
        <path
           id="path4254"
           d="m 21.7,32.9 c -4.6,3 -9.3,2.8 -9.3,2.8 0,0 -0.1,-0.6 -0.1,-1.6 0.1,-1 0.6,-0.7 1,-1.6 0.1,-0.3 0.3,-0.5 0.5,-1.2 0,0 0.03013,-4.719542 -0.149244,-7.069849 C 13.524614,22.57732 13.2,21.2 13,19.3 12.9,18.2 12.746003,17.535086 12.595983,16.284924 12.445964,15.034762 11.9,13.1 11.9,13.1 c -0.2,0.5 -0.5,2.3 -0.7,4.3 -0.1,1 -0.3,2 -0.4,3 -0.3,2 -0.9,7.5 -1,7.8 -0.1,0.4 -0.2,-0.1 -0.2,-0.1 0,0 0.4,-5.7 0.5,-8.2 0.1,-1.2 0.1,-2.6 0.3,-3.9 0.1,-1 0.3,-1.9 0.5,-2.7 0,0 0.7,-2 0.9,-2 0.2,0 0.799836,0.499223 1.2,2.4 0.400164,1.900777 0.9,2.9 1.4,5.6 0.4,2.6 0.8,4.7 0.8,5.1 0.2,1.3 0.1,5.3 -0.2,6.8 -0.1,0.4 -0.1,0.6 -0.4,0.9 -0.7,0.7 -1.1,1.5 -1.1,2 0,0.5 -0.1,0.5 0,0.8 0,0 0.9,1.3 5.9,-1.7 0,0 1.6,-0.8 1.6,-2.6 L 21,12 c 0,0 -5,-1.7 -8.8,-1.7 -3.8,0 -8.6,1.7 -8.6,1.7 l 0,18.2 c 0,1.1 0.2,3.2 1.8,3.9 0,0 -4.3,-1.5 -4.3,-4 l 0,-19.6 c 0,0 6.5,-1.2 11.1,-1.2 4.6,0 11.2,1.2 11.2,1.2 l 0,19.8 c -0.1,1.7 -1.7,2.6 -1.7,2.6 z"
           inkscape:connector-curvature="0"
           sodipodi:nodetypes="cccccaczcsccccccszcccssccscscscscsccc" />
      </g>
    </g>
    <g
       id="g4256">
      <path
         id="path4258"
         d="M 83.6,17.6 C 83.1,17.9 82.5,18 81.8,18 81,18 80.4,17.8 80,17.3 c -0.4,-0.5 -0.6,-1.1 -0.6,-2 0,-0.8 0.2,-1.5 0.6,-2 0.4,-0.5 1,-0.7 1.7,-0.7 0.3,0 0.6,0 0.8,0.1 l 0,-2.1 1.2,0 0,7 z m -1.2,-0.5 0,-3.8 c -0.2,0 -0.3,-0.1 -0.5,-0.1 -0.9,0 -1.4,0.7 -1.4,2 0,1.3 0.4,2 1.3,2 0.3,0 0.5,0 0.6,-0.1 z"
         inkscape:connector-curvature="0" />
      <path
         id="path4260"
         d="m 89,15.2 -3.2,0.5 c 0.1,1 0.6,1.5 1.4,1.5 0.5,0 1,-0.1 1.3,-0.3 l 0.3,0.8 c -0.4,0.2 -1,0.4 -1.7,0.4 -0.8,0 -1.4,-0.2 -1.8,-0.7 -0.4,-0.5 -0.7,-1.2 -0.7,-2 0,-0.9 0.2,-1.5 0.6,-2 0.4,-0.5 1,-0.7 1.6,-0.7 0.7,0 1.142807,0.293606 1.6,0.7 0.457193,0.406394 0.7,0.9 0.6,1.8 z m -1.1,-0.5 c 0,-1 -0.3,-1.5 -1,-1.5 -0.4,0 -0.6,0.1 -0.8,0.4 -0.2,0.3 -0.3,0.8 -0.3,1.4 z"
         inkscape:connector-curvature="0"
         sodipodi:nodetypes="ccsccssssszccsscc" />
    </g>
    <g
       id="g4262">
      <path
         id="path4264"
         d="m 29.1,31.9 -1.9,0 0,-11.5 1.9,0 0,11.5 z"
         inkscape:connector-curvature="0" />
      <path
         id="path4266"
         d="m 37.7,27.8 c 0,1.3 -0.3,2.3 -0.8,3 -0.6,0.8 -1.5,1.2 -2.6,1.2 -1.1,0 -2,-0.4 -2.6,-1.2 -0.6,-0.8 -0.8,-1.8 -0.8,-3 0,-1.3 0.3,-2.3 0.8,-3.1 0.6,-0.8 1.5,-1.2 2.6,-1.2 1.1,0 2,0.4 2.6,1.2 0.5,0.8 0.8,1.8 0.8,3.1 z m -1.9,0 c 0,-2.1 -0.5,-3.1 -1.6,-3.1 -1.1,0 -1.6,1 -1.6,3.1 0,2 0.5,3 1.6,3 1.1,0 1.6,-1 1.6,-3 z"
         inkscape:connector-curvature="0" />
      <path
         id="path4268"
         d="m 44.1,29.5 c 0,0.7 -0.3,1.3 -0.8,1.8 -0.5,0.5 -1.3,0.7 -2.1,0.7 -0.9,0 -1.7,-0.2 -2.3,-0.6 l 0.5,-1.2 c 0.4,0.3 0.9,0.5 1.5,0.5 0.4,0 0.7,-0.1 0.9,-0.3 0.2,-0.2 0.4,-0.5 0.4,-0.8 0,-0.3 -0.1,-0.6 -0.3,-0.8 C 41.7,28.6 41.4,28.4 41,28.3 39.7,27.8 39.1,27 39.1,26 c 0,-0.7 0.2,-1.2 0.7,-1.7 0.5,-0.5 1.1,-0.7 1.9,-0.7 0.8,0 1.6,0.2 2.1,0.6 l -0.5,1.1 C 42.9,25 42.5,24.8 42,24.8 c -0.4,0 -0.7,0.1 -0.9,0.3 -0.2,0.2 -0.3,0.5 -0.3,0.8 0,0.5 0.4,1 1.2,1.3 1.5,0.4 2.1,1.3 2.1,2.3 z"
         inkscape:connector-curvature="0" />
      <path
         id="path4270"
         d="m 57.9,31.9 -2.2,0 -0.9,-2.9 -3.7,0 -0.9,2.9 -1.9,0 3.8,-11.5 2,0 3.8,11.5 z m -3.4,-4.2 -1.2,-4 C 53.1,23.1 53,22.7 53,22.3 l 0,0 c -0.1,0.3 -0.2,0.8 -0.3,1.4 l -1.2,4 3,0 z"
         inkscape:connector-curvature="0" />
      <path
         id="path4272"
         d="m 65.6,31.9 -1.9,0 0,-5.9 c 0,-0.9 -0.5,-1.4 -1.5,-1.4 -0.5,0 -0.9,0.1 -1.3,0.2 l 0,7 -1.9,0 0,-7.8 c 0.8,-0.4 1.9,-0.6 3.2,-0.6 1.2,0 2,0.3 2.6,0.8 0.5,0.4 0.7,1 0.7,1.8 l 0,5.9 z"
         inkscape:connector-curvature="0" />
      <path
         id="path4274"
         d="m 74,31.5 c -0.7,0.4 -1.7,0.6 -2.9,0.6 -1.2,0 -2.2,-0.4 -2.8,-1.1 -0.7,-0.7 -1,-1.8 -1,-3.1 0,-1.3 0.3,-2.4 1,-3.2 0.7,-0.8 1.5,-1.1 2.6,-1.1 0.5,0 0.9,0.1 1.2,0.2 l 0,-3.3 1.9,0 0,11 z m -1.8,-0.8 0,-5.9 c -0.2,-0.1 -0.5,-0.1 -0.8,-0.1 -1.5,0 -2.2,1 -2.2,3.1 0,2.1 0.7,3.1 2,3.1 0.4,0 0.8,-0.1 1,-0.2 z"
         inkscape:connector-curvature="0" />
      <path
         id="path4276"
         d="m 82.5,27.7 -5.1,0.7 c 0.2,1.5 0.9,2.3 2.3,2.3 0.8,0 1.5,-0.2 2.1,-0.5 l 0.4,1.2 c -0.7,0.4 -1.6,0.6 -2.7,0.6 -1.2,0 -2.1,-0.4 -2.8,-1.1 -0.7,-0.7 -1,-1.8 -1,-3.2 0,-1.3 0.3,-2.4 0.9,-3.1 0.6,-0.8 1.5,-1.1 2.6,-1.1 1.1,0 1.9,0.4 2.5,1.1 0.6,0.7 0.9,1.8 0.8,3.1 z M 80.8,27 c 0,-1.6 -0.5,-2.3 -1.6,-2.3 -0.6,0 -1,0.2 -1.3,0.7 -0.3,0.5 -0.5,1.2 -0.5,2.2 L 80.8,27 Z"
         inkscape:connector-curvature="0" />
      <path
         id="path4278"
         d="m 89,29.5 c 0,0.7 -0.3,1.3 -0.8,1.8 -0.5,0.5 -1.3,0.7 -2.1,0.7 -0.9,0 -1.7,-0.2 -2.3,-0.6 l 0.5,-1.2 c 0.4,0.3 0.9,0.5 1.5,0.5 0.4,0 0.7,-0.1 0.9,-0.3 0.2,-0.2 0.4,-0.5 0.4,-0.8 C 87.1,29.3 87,29 86.8,28.8 86.6,28.6 86.3,28.4 85.9,28.3 84.6,27.8 84,27 84,26 c 0,-0.7 0.2,-1.2 0.7,-1.7 0.5,-0.5 1.1,-0.7 1.9,-0.7 0.8,0 1.6,0.2 2.1,0.6 l -0.5,1.1 c -0.4,-0.3 -0.8,-0.5 -1.3,-0.5 -0.4,0 -0.7,0.1 -0.9,0.3 -0.2,0.2 -0.3,0.5 -0.3,0.8 0,0.5 0.4,1 1.2,1.3 1.4,0.4 2.1,1.3 2.1,2.3 z"
         inkscape:connector-curvature="0" />
    </g>
    <g
       id="g4280">
      <path
         id="path4282"
         d="m 37.1,17.9 -1.2,0 0,-3.7 c 0,-0.6 -0.3,-0.9 -0.9,-0.9 -0.3,0 -0.6,0 -0.8,0.1 l 0,4.5 -1.2,0 0,-5 c 0.5,-0.3 1.2,-0.4 2.1,-0.4 0.7,0 1.3,0.2 1.6,0.5 0.3,0.3 0.5,0.6 0.5,1.1 l 0,3.8 z"
         inkscape:connector-curvature="0" />
      <path
         id="path4284"
         d="m 39.6,11.1 c 0,0.2 -0.1,0.3 -0.2,0.4 -0.1,0.1 -0.3,0.2 -0.5,0.2 -0.2,0 -0.3,-0.1 -0.5,-0.2 -0.1,-0.1 -0.2,-0.3 -0.2,-0.4 0,-0.2 0.1,-0.3 0.2,-0.4 0.1,-0.1 0.3,-0.2 0.5,-0.2 0.2,0 0.3,0.1 0.5,0.2 0.2,0.1 0.2,0.3 0.2,0.4 z m 0,6.8 -1.2,0 0,-5.3 1.2,0 0,5.3 z"
         inkscape:connector-curvature="0" />
      <path
         id="path4286"
         d="m 45,12.6 -1.7,5.3 -1.1,0 -1.7,-5.3 1.3,0 0.9,3.4 c 0.1,0.3 0.1,0.5 0.1,0.7 l 0,0 c 0,-0.2 0.1,-0.4 0.1,-0.7 l 0.9,-3.4 1.2,0 z"
         inkscape:connector-curvature="0" />
      <path
         id="path4288"
         d="m 50,15.2 -3.2,0.5 c 0.1,1 0.6,1.5 1.4,1.5 0.5,0 1,-0.1 1.3,-0.3 l 0.3,0.8 c -0.4,0.2 -1,0.4 -1.7,0.4 -0.8,0 -1.4,-0.2 -1.8,-0.7 -0.4,-0.5 -0.7,-1.2 -0.7,-2 0,-0.9 0.2,-1.5 0.6,-2 0.4,-0.5 0.9,-0.7 1.6,-0.7 0.7,0 1.142807,0.208325 1.6,0.614719 C 49.857193,13.721113 50,14.3 50,15.2 Z m -1.1,-0.4 c 0,-1 -0.3,-1.5 -1,-1.5 -0.4,0 -0.6,0.1 -0.8,0.4 -0.2,0.3 -0.3,0.8 -0.3,1.4 z"
         inkscape:connector-curvature="0"
         sodipodi:nodetypes="ccsccssssszccsscc" />
      <path
         id="path4290"
         d="m 53.6,12.5 -0.2,0.9 c -0.2,-0.1 -0.4,-0.1 -0.5,-0.1 -0.2,0 -0.4,0 -0.6,0.1 l 0,4.4 -1.2,0 0,-5 c 0.6,-0.2 1.4,-0.3 2.5,-0.3 z"
         inkscape:connector-curvature="0" />
      <path
         id="path4292"
         d="m 57.4,16.4 c 0,0.4 -0.2,0.8 -0.5,1.1 -0.3,0.3 -0.8,0.5 -1.4,0.5 -0.6,0 -1.1,-0.1 -1.5,-0.4 l 0.3,-0.8 c 0.3,0.2 0.6,0.3 1,0.3 0.2,0 0.4,-0.1 0.6,-0.2 0.1,-0.1 0.2,-0.3 0.2,-0.5 0,-0.2 -0.1,-0.4 -0.2,-0.5 -0.1,-0.1 -0.3,-0.2 -0.6,-0.3 -0.8,-0.3 -1.2,-0.8 -1.2,-1.5 0,-0.4 0.2,-0.8 0.5,-1.1 0.3,-0.3 0.7,-0.4 1.2,-0.4 0.5,0 1,0.1 1.4,0.4 L 57,13.6 c -0.2,-0.2 -0.5,-0.3 -0.8,-0.3 -0.2,0 -0.4,0.1 -0.6,0.2 -0.1,0.1 -0.2,0.3 -0.2,0.5 0,0.3 0.3,0.6 0.8,0.8 0.8,0.4 1.2,0.9 1.2,1.6 z"
         inkscape:connector-curvature="0" />
      <path
         id="path4294"
         d="m 59.7,11.1 c 0,0.2 -0.1,0.3 -0.2,0.4 -0.1,0.1 -0.3,0.2 -0.5,0.2 -0.2,0 -0.3,-0.1 -0.5,-0.2 -0.1,-0.1 -0.2,-0.3 -0.2,-0.4 0,-0.2 0.1,-0.3 0.2,-0.4 0.1,-0.1 0.3,-0.2 0.5,-0.2 0.2,0 0.3,0.1 0.5,0.2 0.2,0.1 0.2,0.3 0.2,0.4 z m 0,6.8 -1.2,0 0,-5.3 1.2,0 0,5.3 z"
         inkscape:connector-curvature="0" />
      <path
         id="path4296"
         d="M 65.1,17.6 C 64.6,17.9 64,18 63.3,18 c -0.8,0 -1.4,-0.2 -1.8,-0.7 -0.4,-0.5 -0.6,-1.1 -0.6,-2 0,-0.8 0.2,-1.5 0.6,-2 0.4,-0.5 1,-0.7 1.7,-0.7 0.3,0 0.6,0 0.8,0.1 l 0,-2.1 1.2,0 0,7 z m -1.2,-0.5 0,-3.8 c -0.2,0 -0.3,-0.1 -0.5,-0.1 -0.9,0 -1.4,0.7 -1.4,2 0,1.3 0.4,2 1.3,2 0.3,0 0.5,0 0.6,-0.1 z"
         inkscape:connector-curvature="0" />
      <path
         id="path4298"
         d="m 70.2,17.6 c -0.5,0.3 -1.1,0.4 -1.9,0.4 -1.4,0 -2.1,-0.5 -2.1,-1.6 0,-0.6 0.3,-1.1 0.9,-1.4 0.5,-0.2 1.1,-0.4 2.1,-0.5 l 0,-0.3 c 0,-0.6 -0.3,-0.9 -1,-0.9 -0.4,0 -0.9,0.1 -1.3,0.3 l -0.3,-0.7 c 0.5,-0.3 1.1,-0.4 1.8,-0.4 1.3,0 1.9,0.6 1.9,1.8 l 0,3.3 z m -1.1,-0.4 0,-2.2 c -0.6,0.1 -1.1,0.2 -1.3,0.4 -0.3,0.2 -0.5,0.5 -0.5,1 0,0.7 0.4,1 1.1,1 0.2,-0.1 0.5,-0.1 0.7,-0.2 z"
         inkscape:connector-curvature="0" />
      <path
         id="path4300"
         d="M 75.5,17.6 C 75,17.9 74.4,18 73.7,18 c -0.8,0 -1.4,-0.2 -1.8,-0.7 -0.4,-0.5 -0.6,-1.1 -0.6,-2 0,-0.8 0.2,-1.5 0.6,-2 0.4,-0.5 1,-0.7 1.7,-0.7 0.3,0 0.6,0 0.8,0.1 l 0,-2.1 1.2,0 0,7 z m -1.2,-0.5 0,-3.8 c -0.2,0 -0.3,-0.1 -0.5,-0.1 -0.9,0 -1.4,0.7 -1.4,2 0,1.3 0.4,2 1.3,2 0.3,0 0.5,0 0.6,-0.1 z"
         inkscape:connector-curvature="0" />
    </g>
    <path
       id="path4302"
       d="m 27.2,10.6 1.3,0 0,5.7 c 0,0.6 0.3,0.9 1,0.9 0.3,0 0.6,-0.1 0.9,-0.2 l 0,-6.4 1.3,0 0,7 C 31,17.8 30.3,18 29.4,18 28.6,18 28,17.8 27.7,17.5 27.4,17.2 27.2,16.8 27.2,16.3 l 0,-5.7 z"
       inkscape:connector-curvature="0" />
  </g>
</svg>
