<?xml version="1.0" encoding="UTF-8" standalone="no"?>
<!-- Created with Inkscape (http://www.inkscape.org/) -->

<svg
   xmlns:dc="http://purl.org/dc/elements/1.1/"
   xmlns:cc="http://creativecommons.org/ns#"
   xmlns:rdf="http://www.w3.org/1999/02/22-rdf-syntax-ns#"
   xmlns:svg="http://www.w3.org/2000/svg"
   xmlns="http://www.w3.org/2000/svg"
   xmlns:sodipodi="http://sodipodi.sourceforge.net/DTD/sodipodi-0.dtd"
   xmlns:inkscape="http://www.inkscape.org/namespaces/inkscape"
   width="146.18584mm"
   height="110.14169mm"
   viewBox="0 0 517.98131 390.26581"
   id="svg2"
   version="1.1"
   inkscape:version="0.91 r13725"
   sodipodi:docname="logo_descargar.svg">
  <defs
     id="defs4" />
  <sodipodi:namedview
     id="base"
     pagecolor="#ffffff"
     bordercolor="#666666"
     borderopacity="1.0"
     inkscape:pageopacity="0.0"
     inkscape:pageshadow="2"
     inkscape:zoom="0.49497475"
     inkscape:cx="656.36039"
     inkscape:cy="536.31352"
     inkscape:document-units="px"
     inkscape:current-layer="layer1"
     showgrid="false"
     fit-margin-left="1"
     fit-margin-top="1"
     fit-margin-right="1"
     fit-margin-bottom="1"
     inkscape:window-width="1366"
     inkscape:window-height="684"
     inkscape:window-x="0"
     inkscape:window-y="31"
     inkscape:window-maximized="1" />
  <metadata
     id="metadata7">
    <rdf:RDF>
      <cc:Work
         rdf:about="">
        <dc:format>image/svg+xml</dc:format>
        <dc:type
           rdf:resource="http://purl.org/dc/dcmitype/StillImage" />
        <dc:title></dc:title>
      </cc:Work>
    </rdf:RDF>
  </metadata>
  <g
     inkscape:label="Layer 1"
     inkscape:groupmode="layer"
     id="layer1"
     transform="translate(1220.6461,-684.1242)">
    <path
       id="path4251"
       d="m -196.27871,292.14337 c 7.872,0.7 11.792,-1.952 17.542,-7.292 24.832,-23.08 54.13,-30.226 86.294,-19.542 31.624,10.502 51.232,32.974 57.73,65.942 1.268,6.458 3.808,10.338 9.576,13.624 16.486,9.39 25.986,29.708 22.722,46.63 -4.228,21.918 -18.594,37.11 -38.912,40.328 -10.82,1.72 -21.564,0.49 -31.088,-5.376 -4.266,-2.628 -7.644,-2.34 -12.05,-0.494 -28.292,11.892 -55.684,9.874 -81.718,-6.502 -3.998,-2.518 -7.344,-2.714 -11.672,-1.296 -36.69,11.982 -74.85,-8.834 -84.168,-45.426 -10.674,-41.948 22.794,-82.512 65.744,-80.596 z"
       inkscape:connector-curvature="0"
       style="fill:#2683ff" />
    <path
       style="fill:#a11800;fill-opacity:1"
       d="m -1122.2688,1070.1323 c -23.1832,-3.3891 -45.5854,-14.758 -62.6293,-31.7838 -14.5347,-14.5195 -24.0745,-31.2707 -29.64,-52.04643 -2.2905,-8.55025 -2.5647,-11.44467 -2.5647,-27.07377 0,-15.78254 0.2614,-18.4814 2.6631,-27.5 8.2511,-30.98243 29.4322,-57.36203 57.471,-71.57593 4.2349,-2.14684 10.1749,-4.77218 13.1999,-5.83408 l 5.5,-1.93071 0.7209,-11.33687 c 1.7993,-28.2934 12.9854,-53.28719 32.6498,-72.95167 14.557,-14.5569 31.3599,-24.11821 52.0555,-29.62088 8.2457,-2.19241 11.7933,-2.55837 25.5738,-2.63805 9.9963,-0.0578 18.1738,0.40286 21.7932,1.22771 l 5.79326,1.32023 2.17048,-2.82987 c 1.19376,-1.55644 5.1118,-5.91562 8.70675,-9.68707 16.94248,-17.77433 40.90551,-30.89297 66.47551,-36.39223 11.38645,-2.44884 37.9024,-2.40689 49.56076,0.0784 25.76499,5.49254 47.37109,17.11189 65.4651,35.20591 17.91856,17.91855 29.45604,39.23957 35.15468,64.9651 1.30282,5.88133 1.78645,12.58441 1.82618,25.31051 l 0.054,17.31052 8.22146,5.49069 c 27.31023,18.23912 46.85608,47.48033 54.02796,80.82752 2.44884,11.38645 2.40689,37.9024 -0.0784,49.56076 -9.7362,45.67161 -41.75475,82.04361 -84.87466,96.41481 -19.25535,6.4174 -7.18736,5.9855 -172.79634,6.185 -82.77504,0.1 -153.19994,-0.2134 -156.49994,-0.6958 z m 208.49996,-111.404 47.49211,-47.5 -31.74606,0 -31.74605,0 0,-48 0,-48 -32,0 -32,0 0,48 0,48 -31.74606,0 -31.746,0 47.4921,47.5 c 26.12062,26.125 47.72062,47.5 47.99996,47.5 0.27934,0 21.87934,-21.375 48,-47.5 z"
       id="path4373"
       inkscape:connector-curvature="0" />
  </g>
</svg>
