<?xml version="1.0" encoding="UTF-8" standalone="no"?>
<!-- Created with Inkscape (http://www.inkscape.org/) -->

<svg
   xmlns:dc="http://purl.org/dc/elements/1.1/"
   xmlns:cc="http://creativecommons.org/ns#"
   xmlns:rdf="http://www.w3.org/1999/02/22-rdf-syntax-ns#"
   xmlns:svg="http://www.w3.org/2000/svg"
   xmlns="http://www.w3.org/2000/svg"
   xmlns:sodipodi="http://sodipodi.sourceforge.net/DTD/sodipodi-0.dtd"
   xmlns:inkscape="http://www.inkscape.org/namespaces/inkscape"
   width="191.05026mm"
   height="214.84875mm"
   viewBox="0 0 676.94975 761.27511"
   id="svg2"
   version="1.1"
   inkscape:version="0.91 r13725"
   sodipodi:docname="logo_guardar.svg">
  <defs
     id="defs4" />
  <sodipodi:namedview
     id="base"
     pagecolor="#ffffff"
     bordercolor="#666666"
     borderopacity="1.0"
     inkscape:pageopacity="0.0"
     inkscape:pageshadow="2"
     inkscape:zoom="0.24748737"
     inkscape:cx="-92.892619"
     inkscape:cy="189.62894"
     inkscape:document-units="px"
     inkscape:current-layer="layer1"
     showgrid="false"
     fit-margin-left="1"
     fit-margin-top="1"
     fit-margin-right="1"
     fit-margin-bottom="1"
     inkscape:window-width="1366"
     inkscape:window-height="684"
     inkscape:window-x="0"
     inkscape:window-y="31"
     inkscape:window-maximized="1" />
  <metadata
     id="metadata7">
    <rdf:RDF>
      <cc:Work
         rdf:about="">
        <dc:format>image/svg+xml</dc:format>
        <dc:type
           rdf:resource="http://purl.org/dc/dcmitype/StillImage" />
        <dc:title></dc:title>
      </cc:Work>
    </rdf:RDF>
  </metadata>
  <g
     inkscape:label="Layer 1"
     inkscape:groupmode="layer"
     id="layer1"
     transform="translate(471.3931,33.56969)">
    <path
       id="path4249"
       d="m 201.83729,188.80337 c -0.61,23.628 -10.866,41.236 -30.658,53.104 -3.648,2.186 -4.918,4.408 -4.908,8.572 0.124,64.456 0.118,128.916 0.018,193.358 -0.006,3.872 0.98,6.208 4.53,8.264 22.904,13.224 34.488,37.636 30.376,63.292 -3.944,24.59 -23.6,44.792 -49.056,49.628 -14.762,2.812 -29.06,0.57 -41.998,-7.368 -3.942,-2.414 -6.72,-1.992 -10.414,0.144 -55.412,32.094 -110.884,64.11 -166.416,96.004 -3.798,2.18 -5.224,4.586 -5.216,9.012 0.06,31.016 -23.876,58.008 -53.778,61.012 -31.844,3.208 -60,-16.792 -66.878,-47.708 -1.056,-4.75 -1.412,-9.71 -1.522,-14.582 -0.078,-3.29 -0.994,-5.312 -3.922,-7.012 -56.304,-32.382 -112.56,-64.848 -168.792,-97.368 -3.046,-1.77 -5.44,-1.778 -8.508,0.074 -36.74,22.118 -83.576,0.914 -91.366,-40.402 -4.92,-26.098 5.708,-50.512 29.064,-64.254 3.694,-2.176 5.362,-4.374 5.354,-8.886 -0.166,-64.458 -0.142,-128.912 -0.042,-193.364 0.004,-3.876 -1.002,-6.162 -4.546,-8.22 -23.458,-13.624 -34.486,-37.292 -29.982,-63.87 4.47,-26.4 24.89,-45.766 51.458,-49.546 14.242,-2.026 27.972,0.568 40.296,8.436 2.862,1.83 4.988,1.774 7.902,0.094 56.066,-32.446 112.178,-64.796 168.334,-97.076 3.394,-1.952 4.718,-4.196 4.728,-8.196 0.096,-35.502 28.142,-62.672 63.69,-61.958 27.704,0.554 53.624,23.422 57.556,50.762 0.36,2.514 0.922,4.06 0.922,7.524 0,7.578 2.792,10.792 8.694,14.164 54.488,31.176 108.82,62.6 163.124,94.078 3.728,2.164 6.442,2.258 10.324,0.05 36.882,-21.04 81.604,-0.876 90.58,40.75 0.838,3.876 0.758,7.95 1.052,11.488 z m -480.842,221.126 c -0.556,0.472 -0.932,0.884 -1.398,1.142 -30.564,17.658 -61.11,35.362 -91.786,52.818 -1.696,0.958 -4.994,0.758 -6.712,-0.284 -8.11,-4.898 -16.738,-8.148 -26.188,-8.4 -31.436,-0.802 -50.556,24.878 -51.626,47.184 -1.244,26.124 18.526,52.89 50.498,52.648 28.04,-0.204 49.376,-22.688 49.098,-50.738 -0.046,-5.012 1.426,-7.848 5.826,-10.344 32.574,-18.55 65.02,-37.324 97.436,-56.142 3.132,-1.828 5.652,-2.124 9.062,-0.522 20.212,9.5 41.12,11.112 62.668,5.02 2.14,-0.602 4.984,0.008 7.128,0.922 6.336,2.698 12.386,6.122 18.766,8.692 3.636,1.472 4.864,3.458 4.856,7.32 -0.11,50.806 -0.106,101.606 -0.01,152.408 0.004,3.582 -1.126,5.62 -4.396,7.188 -17.122,8.25 -30.038,29.542 -26.514,52.32 4.092,26.454 31.276,46.438 57.498,41.308 23.11,-4.52 38.292,-20.29 41.542,-44.562 2.204,-16.458 -5.718,-38.196 -26.888,-49.074 -2.868,-1.464 -4.452,-3.07 -4.442,-6.602 0.106,-49.348 0.112,-98.692 0,-148.032 -0.004,-4.386 2.012,-5.286 5.85,-5.964 10.142,-1.782 20.304,-3.74 30.212,-6.524 4.48,-1.252 8.028,-1.436 12.372,0.434 21.722,9.35 42.88,7.748 63.112,-4.46 2.89,-1.736 4.96,-1.814 7.864,-0.122 26.726,15.564 53.506,31.062 80.398,46.334 4.348,2.46 6.034,5.188 5.9,10.292 -0.774,29.522 24.968,53.642 54.992,50.448 29.47,-3.132 50.348,-31.504 43.512,-60.188 -8.194,-34.376 -45.428,-49.88 -75.504,-31.304 -3.17,1.958 -5.46,2.486 -8.84,0.512 -25.452,-14.874 -50.962,-29.634 -76.58,-44.22 -3.786,-2.146 -4.29,-4.148 -3.086,-8.208 7.726,-26.032 2.478,-49.184 -16.162,-69.124 -3.642,-3.898 -20.732,-31.194 -23.116,-36.226 -1.884,-3.98 -1.088,-6.106 2.708,-8.282 38.838,-22.242 77.622,-44.594 116.336,-67.05 3.12,-1.802 5.236,-1.836 8.292,0.218 10.912,7.328 23.144,9.642 35.978,7.396 24.984,-4.376 43.094,-26.984 40.866,-53.67 -2.42,-28.952 -30.82,-50.592 -59.182,-44.316 -24.888,5.51 -40.524,24.964 -40.238,50.536 0.042,4.36 -1.17,6.846 -5.054,9.064 -39.328,22.5 -78.558,45.154 -117.718,67.948 -3.534,2.05 -5.462,1.628 -8.302,-1.11 -18.454,-17.776 -40.652,-27.76 -65.984,-30.924 -8.546,-1.076 -8.55,-1.028 -8.55,-9.852 -0.004,-46.25 0.112,-92.5 -0.138,-138.746 -0.032,-6.456 1.476,-10.196 7.522,-13.67 21.684,-12.458 29.93,-39.284 20.006,-62.152 -10.006,-23.07 -35.566,-35.396 -59.54,-28.094 -21.818,6.642 -33.978,22.06 -36.122,44.49 -1.646,17.31 6.542,36.54 26.298,47.334 3.034,1.656 5.152,3.114 5.136,7.278 -0.166,50.99 -0.154,101.968 -0.026,152.958 0.008,4.042 -1.834,5.41 -5.13,7.078 -9.866,4.974 -20.448,9.322 -28.82,16.248 -9.66,7.974 -18.69,12.582 -32.14,12.582 -1.312,-0.042 -2.154,0.088 -3.52,0.056 -3.334,-0.072 -7.078,-0.21 -9.802,-1.768 -39.674,-22.624 -79.132,-45.624 -118.856,-68.174 -5.674,-3.216 -8.414,-6.662 -7.466,-13.204 0.376,-2.606 -0.426,-5.394 -0.85,-8.08 -3.878,-24.428 -27.77,-44.864 -56.61,-40.122 -28.29,4.654 -46.25,30.256 -41.586,57.658 5.954,34.998 45.89,52.714 76.024,33.572 3.4,-2.162 5.752,-2.332 9.234,-0.298 29.864,17.416 59.848,34.626 89.792,51.906 5.13,2.962 10.246,5.952 15.346,8.912 -34.41,36.432 -38.272,75.582 -13.246,118.328 z"
       inkscape:connector-curvature="0"
       style="fill:#2683ff" />
    <path
       id="path4251"
       d="m -196.27871,292.14337 c 7.872,0.7 11.792,-1.952 17.542,-7.292 24.832,-23.08 54.13,-30.226 86.294,-19.542 31.624,10.502 51.232,32.974 57.73,65.942 1.268,6.458 3.808,10.338 9.576,13.624 16.486,9.39 25.986,29.708 22.722,46.63 -4.228,21.918 -18.594,37.11 -38.912,40.328 -10.82,1.72 -21.564,0.49 -31.088,-5.376 -4.266,-2.628 -7.644,-2.34 -12.05,-0.494 -28.292,11.892 -55.684,9.874 -81.718,-6.502 -3.998,-2.518 -7.344,-2.714 -11.672,-1.296 -36.69,11.982 -74.85,-8.834 -84.168,-45.426 -10.674,-41.948 22.794,-82.512 65.744,-80.596 z"
       inkscape:connector-curvature="0"
       style="fill:#2683ff" />
  </g>
</svg>
