<?xml version="1.0" encoding="UTF-8" standalone="no"?>
<!-- Created with Inkscape (http://www.inkscape.org/) -->

<svg
   xmlns:dc="http://purl.org/dc/elements/1.1/"
   xmlns:cc="http://creativecommons.org/ns#"
   xmlns:rdf="http://www.w3.org/1999/02/22-rdf-syntax-ns#"
   xmlns:svg="http://www.w3.org/2000/svg"
   xmlns="http://www.w3.org/2000/svg"
   xmlns:sodipodi="http://sodipodi.sourceforge.net/DTD/sodipodi-0.dtd"
   xmlns:inkscape="http://www.inkscape.org/namespaces/inkscape"
   width="148.29083mm"
   height="99.131714mm"
   viewBox="0 0 525.43996 351.2541"
   id="svg2"
   version="1.1"
   inkscape:version="0.91 r13725"
   sodipodi:docname="upload.svg">
  <defs
     id="defs4">
    <inkscape:path-effect
       effect="spiro"
       id="path-effect4251"
       is_visible="true" />
    <filter
       inkscape:collect="always"
       style="color-interpolation-filters:sRGB"
       id="filter4451"
       x="-0.0099436815"
       width="1.0198874"
       y="-0.015128526"
       height="1.0302571">
      <feGaussianBlur
         inkscape:collect="always"
         stdDeviation="2.1057636"
         id="feGaussianBlur4453" />
    </filter>
    <filter
       inkscape:collect="always"
       style="color-interpolation-filters:sRGB"
       id="filter4455"
       x="-0.044897231"
       width="1.0897945"
       y="-0.035500038"
       height="1.0710001">
      <feGaussianBlur
         inkscape:collect="always"
         stdDeviation="2.1057636"
         id="feGaussianBlur4457" />
    </filter>
  </defs>
  <sodipodi:namedview
     id="base"
     pagecolor="#ffffff"
     bordercolor="#666666"
     borderopacity="1.0"
     inkscape:pageopacity="0.0"
     inkscape:pageshadow="2"
     inkscape:zoom="0.98994949"
     inkscape:cx="200.87209"
     inkscape:cy="165.0324"
     inkscape:document-units="px"
     inkscape:current-layer="layer1"
     showgrid="false"
     fit-margin-left="1"
     fit-margin-top="1"
     fit-margin-right="1"
     fit-margin-bottom="1"
     inkscape:window-width="1366"
     inkscape:window-height="684"
     inkscape:window-x="0"
     inkscape:window-y="31"
     inkscape:window-maximized="1" />
  <metadata
     id="metadata7">
    <rdf:RDF>
      <cc:Work
         rdf:about="">
        <dc:format>image/svg+xml</dc:format>
        <dc:type
           rdf:resource="http://purl.org/dc/dcmitype/StillImage" />
        <dc:title></dc:title>
      </cc:Work>
    </rdf:RDF>
  </metadata>
  <g
     inkscape:label="Layer 1"
     inkscape:groupmode="layer"
     id="layer1"
     transform="translate(-135.65993,-38.502053)">
    <path
       id="path4439"
       d="m 411.66518,358.74652 c -10.63807,0 -19.20313,-8.5631 -19.20313,-19.20117 l 0,-103.95704 c 1e-5,-10.63807 8.56506,-19.20312 19.20313,-19.20312 l 74.16016,0 c 10.63807,0 19.20117,8.56505 19.20117,19.20312 l 0,103.95704 c 0,10.63807 -8.5631,19.20117 -19.20117,19.20117 l -74.16016,0 z m 22.08008,-34.05274 15,0 15,0 0.27344,-17.25 0.27343,-17.25 7.47657,0 c 6.0306,0 7.47656,-0.29445 7.47656,-1.52343 0,-1.7807 -28.6354,-37.8565 -30.34571,-38.23047 -0.6357,-0.13901 -7.79179,8.06866 -15.90429,18.23828 -8.1125,10.16962 -14.75,19.17005 -14.75,20.00195 0,1.21517 1.47006,1.51367 7.47656,1.51367 l 7.47461,0 0.27539,17.25 0.27344,17.25 z"
       style="opacity:1;fill:#000000;fill-opacity:0.58823529;fill-rule:nonzero;stroke:none;stroke-width:2.78102183;stroke-miterlimit:4;stroke-dasharray:none;stroke-opacity:0.60625;filter:url(#filter4455)"
       inkscape:connector-curvature="0" />
    <path
       sodipodi:nodetypes="sssscccssscccssssscccsccsaaaasssscccsscsccssssscccsscccscsssccsscccsssccssssssssssscsssscssscccscssccscc"
       inkscape:connector-curvature="0"
       id="path4441"
       d="m 256.59682,47.099609 c -0.70342,-0.03863 -3.10403,2.612935 -6.52344,7.603516 -7.68831,11.220934 -9.92678,18.754227 -9.25,31.134766 0.94444,17.277259 10.09706,27.820199 43.58399,50.210939 16.26638,10.87641 21.53776,23.08337 15.48828,35.86523 l -3.0293,6.39844 0.78516,-10.78125 c 0.65313,-8.98425 0.21108,-11.72161 -2.64649,-16.43945 -4.30125,-7.10137 -14.96129,-11.82506 -21.35156,-9.46094 -5.0967,1.88557 -7.55913,5.02252 -3.05078,3.88672 8.24605,-2.07747 16.7818,18.26559 12.22852,29.14453 l -2.17579,5.19727 -17.6582,0 c -14.75244,4.6e-4 -19.84717,0.71875 -30.96289,4.35937 -22.8488,7.48345 -31.19343,17.6653 -29.24023,35.67773 0.93496,8.62211 0.88007,8.77052 -2.69922,7.4629 -11.22278,-4.10007 -21.68622,0.92897 -25.44532,12.22851 -2.08947,6.2808 -2.04613,7.89579 0.39063,14.95703 1.5025,4.35397 2.49313,8.09992 2.20313,8.32422 -0.29004,0.2243 -4.12527,2.12323 -8.52344,4.21875 -14.01049,6.91302 -21.4517,21.6673 -23.53683,33.15737 -2.07217,12.07188 -2.04405,44.15036 15.13644,60.90318 14.3123,13.95602 34.36449,21.2823 53.90039,19.69336 l 376.57031,0 c 11.86472,1.3705 24.15921,-1.73617 34.10547,-8.61914 9.94623,-6.88297 17.04505,-14.95755 21.6688,-24.95759 5.45812,-11.80457 6.18946,-25.56924 5.87725,-38.57084 -0.22157,-9.22679 -2.28278,-18.48265 -5.47993,-27.14066 -3.06597,-8.30279 -7.48434,-16.21239 -12.92159,-23.19615 -6.88538,-8.84377 -16.94384,-18.56144 -24.46484,-23.0664 -12.5806,-7.53553 -29.02191,-12.16602 -43.19141,-12.16602 -6.13303,0 -6.27934,-0.0639 -8.79883,-3.87109 -4.25479,-6.42944 -14.05766,-15.74713 -22.06836,-20.97657 -13.92899,-9.09294 -31.37721,-13.76932 -48.41992,-12.97461 l -8.99609,0.41993 -2.71289,-5.54883 c -4.11375,-8.41724 -11.1219,-17.74337 -19.47657,-25.91602 -12.37358,-12.10403 -26.6419,-20.36366 -44.52929,-25.77734 -8.35888,-2.52985 -10.27622,-3.73624 -27,-3.74024 -16.72378,-0.004 -18.6351,1.19788 -27,3.72852 -15.88393,4.80539 -27.47782,10.9486 -39.08985,21.03516 l -0.73242,0.004 C 315.1102,135.31755 304.49657,124.20656 279.41127,108.2794 261.39281,96.83912 254.70929,89.806594 251.86831,79.296975 c -2.14756,-7.944456 -0.84057,-19.848048 2.97265,-27.0625 1.82274,-3.448526 2.30296,-5.104717 1.75586,-5.134766 z m 120.94531,90.355471 c 27.70283,-0.57721 55.22327,10.18308 75.55078,31.51758 8.31857,8.73066 12.91619,15.33079 18.39258,26.40234 l 3.83399,7.75 8.59765,0 c 10.70224,0 17.96556,1.31458 28.67969,5.19141 15.10192,5.46451 31.07503,18.10953 39.23438,31.06054 l 3.45117,5.47657 8.54883,0.58984 c 10.6559,0.7331 18.43443,2.74685 27.96093,7.24023 23.1324,10.91098 39.96754,31.60318 45.67774,56.14453 0,10e-6 3.47497,14.07732 3.22265,21.75865 0,0 -0.90669,6.52956 -1.69336,9.17885 -3.31143,11.15201 -10.64107,21.06337 -20.33398,27.4961 -9.69292,6.43273 -21.6738,9.33749 -33.23633,8.05664 l -366.97851,0 c -19.03833,1.485 -38.58153,-5.36313 -52.5293,-18.40625 -16.74291,-15.65696 -12.58259,-51.70074 -10.70215,-57.16264 0,0 7.10777,-17.42328 24.9834,-26.71627 l 6.83398,-3.29101 4.89454,-2.17969 c 1.67094,-1.64123 18.73402,-4.92947 19.69921,-3.83594 0.56947,0.64518 2.26769,5.18388 3.77344,10.08594 3.77944,12.3042 10.49276,23.95681 18.20508,31.59961 0.43871,0.43475 0.86815,0.85482 1.2832,1.25391 0.0496,0.0477 0.0894,0.0817 0.13867,0.1289 -30.20059,4.77721 -59.49576,18.09656 -56.46093,26.22266 0.81661,2.18654 2.66111,2.56864 9.82812,2.03906 6.95382,-0.51384 13.90014,-3.19293 32.8125,-12.65234 41.33285,-20.67348 60.25889,-23.92256 92.56445,-15.89063 20.9051,5.19749 25.95741,4.92913 40.46876,-2.16015 10.56884,-5.16324 21.24461,-15.55449 21.29101,-20.72266 0.0621,-6.91799 -2.83557,-9.60974 -10.41406,-9.67774 -9.33002,-0.0838 -20.39592,4.06319 -41.42969,15.52344 -15.92602,8.67728 -18.09314,9.40401 -30.79883,10.3418 -7.5168,0.55481 -20.67341,1.96408 -29.23828,3.13281 -8.56487,1.1687 -19.1225,2.56743 -23.46094,3.10742 -0.77108,0.096 -1.54274,0.20264 -2.31445,0.31055 -0.93837,-1.71372 -2.05414,-3.69242 -3.32226,-5.8418 -15.5636,-26.37905 -24.07895,-64.52358 -16.46485,-73.75586 2.98161,-3.61524 3.40763,-3.67602 10.92188,-1.54296 24.64445,6.99576 68.0669,2.9776 93.22461,-8.62696 4.2738,-1.97138 7.55723,-3.80324 7.29492,-4.07031 -0.26232,-0.26707 -4.83617,0.94258 -10.16211,2.6875 -23.06571,7.55689 -63.85745,10.43333 -80.05469,5.64453 -9.05557,-2.67733 -17.36713,-8.95483 -18.5957,-14.04297 -3.01465,-12.48502 19.13627,-23.28747 47.23437,-23.03515 l 10.36914,0.0937 -4.61718,6.82617 c -2.53942,3.75471 -5.39365,9.06722 -6.3418,11.80469 -1.6974,4.9007 -1.13371,13.6749 0.86719,13.5 0.56343,-0.0493 3.23262,-3.05527 5.93164,-6.67969 2.69903,-3.62445 8.56519,-8.94357 13.03515,-11.82031 24.56367,-15.80859 30.87525,-24.12137 30.93555,-40.7461 l 4.53516,-1.95703 c 16.87825,-11.25332 35.91848,-16.95663 54.87304,-17.35156 z"
       style="fill:#000000;fill-opacity:0.58823532;fill-rule:evenodd;stroke:none;stroke-width:1px;stroke-linecap:butt;stroke-linejoin:miter;stroke-opacity:0.60625;filter:url(#filter4451)" />
    <path
       inkscape:connector-curvature="0"
       style="opacity:1;fill:#4e00d7;fill-opacity:1;fill-rule:nonzero;stroke:none;stroke-width:2.78102183;stroke-miterlimit:4;stroke-dasharray:none;stroke-opacity:0.60625"
       d="m 407.66518,362.74652 c -10.63807,0 -19.20313,-8.5631 -19.20313,-19.20117 l 0,-103.95704 c 1e-5,-10.63807 8.56506,-19.20312 19.20313,-19.20312 l 74.16016,0 c 10.63807,0 19.20117,8.56505 19.20117,19.20312 l 0,103.95704 c 0,10.63807 -8.5631,19.20117 -19.20117,19.20117 l -74.16016,0 z m 22.08008,-34.05274 15,0 15,0 0.27344,-17.25 0.27343,-17.25 7.47657,0 c 6.0306,0 7.47656,-0.29445 7.47656,-1.52343 0,-1.7807 -28.6354,-37.8565 -30.34571,-38.23047 -0.6357,-0.13901 -7.79179,8.06866 -15.90429,18.23828 -8.1125,10.16962 -14.75,19.17005 -14.75,20.00195 0,1.21517 1.47006,1.51367 7.47656,1.51367 l 7.47461,0 0.27539,17.25 0.27344,17.25 z"
       id="rect4345" />
    <path
       style="fill:#4e00d7;fill-opacity:1;fill-rule:evenodd;stroke:none;stroke-width:1px;stroke-linecap:butt;stroke-linejoin:miter;stroke-opacity:0.60624999"
       d="m 252.59682,51.099609 c -0.70342,-0.03863 -3.10403,2.612935 -6.52344,7.603516 -7.68831,11.220934 -9.92678,18.754227 -9.25,31.134766 0.94444,17.277259 10.09706,27.820199 43.58399,50.210939 16.26638,10.87641 21.53776,23.08337 15.48828,35.86523 l -3.0293,6.39844 0.78516,-10.78125 c 0.65313,-8.98425 0.21108,-11.72161 -2.64649,-16.43945 -4.30125,-7.10137 -14.96129,-11.82506 -21.35156,-9.46094 -5.0967,1.88557 -7.55913,5.02252 -3.05078,3.88672 8.24605,-2.07747 16.7818,18.26559 12.22852,29.14453 l -2.17579,5.19727 -17.6582,0 c -14.75244,4.6e-4 -19.84717,0.71875 -30.96289,4.35937 -22.8488,7.48345 -31.19343,17.6653 -29.24023,35.67773 0.93496,8.62211 0.88007,8.77052 -2.69922,7.4629 -11.22278,-4.10007 -21.68622,0.92897 -25.44532,12.22851 -2.08947,6.2808 -2.04613,7.89579 0.39063,14.95703 1.5025,4.35397 2.49313,8.09992 2.20313,8.32422 -0.29004,0.2243 -4.12527,2.12323 -8.52344,4.21875 -14.01049,6.91302 -21.4517,21.6673 -23.53683,33.15737 -2.07217,12.07188 -2.04405,44.15036 15.13644,60.90318 14.3123,13.95602 34.36449,21.2823 53.90039,19.69336 l 376.57031,0 c 11.86472,1.3705 24.15921,-1.73617 34.10547,-8.61914 9.94623,-6.88297 17.04505,-14.95755 21.6688,-24.95759 5.45812,-11.80457 6.18946,-25.56924 5.87725,-38.57084 -0.22157,-9.22679 -2.28278,-18.48265 -5.47993,-27.14066 -3.06597,-8.30279 -7.48434,-16.21239 -12.92159,-23.19615 -6.88538,-8.84377 -16.94384,-18.56144 -24.46484,-23.0664 -12.5806,-7.53553 -29.02191,-12.16602 -43.19141,-12.16602 -6.13303,0 -6.27934,-0.0639 -8.79883,-3.87109 -4.25479,-6.42944 -14.05766,-15.74713 -22.06836,-20.97657 -13.92899,-9.09294 -31.37721,-13.76932 -48.41992,-12.97461 l -8.99609,0.41993 -2.71289,-5.54883 c -4.11375,-8.41724 -11.1219,-17.74337 -19.47657,-25.91602 -12.37358,-12.10403 -26.6419,-20.36366 -44.52929,-25.77734 -8.35888,-2.52985 -10.27622,-3.73624 -27,-3.74024 -16.72378,-0.004 -18.6351,1.19788 -27,3.72852 -15.88393,4.80539 -27.47782,10.9486 -39.08985,21.03516 l -0.73242,0.004 C 311.1102,139.31755 300.49657,128.20656 275.41127,112.2794 257.39281,100.83912 250.70929,93.806594 247.86831,83.296975 c -2.14756,-7.944456 -0.84057,-19.848048 2.97265,-27.0625 1.82274,-3.448526 2.30296,-5.104717 1.75586,-5.134766 z m 120.94531,90.355471 c 27.70283,-0.57721 55.22327,10.18308 75.55078,31.51758 8.31857,8.73066 12.91619,15.33079 18.39258,26.40234 l 3.83399,7.75 8.59765,0 c 10.70224,0 17.96556,1.31458 28.67969,5.19141 15.10192,5.46451 31.07503,18.10953 39.23438,31.06054 l 3.45117,5.47657 8.54883,0.58984 c 10.6559,0.7331 18.43443,2.74685 27.96093,7.24023 23.1324,10.91098 39.96754,31.60318 45.67774,56.14453 0,10e-6 3.47497,14.07732 3.22265,21.75865 0,0 -0.90669,6.52956 -1.69336,9.17885 -3.31143,11.15201 -10.64107,21.06337 -20.33398,27.4961 -9.69292,6.43273 -21.6738,9.33749 -33.23633,8.05664 l -366.97851,0 c -19.03833,1.485 -38.58153,-5.36313 -52.5293,-18.40625 -16.74291,-15.65696 -12.58259,-51.70074 -10.70215,-57.16264 0,0 7.10777,-17.42328 24.9834,-26.71627 l 6.83398,-3.29101 4.89454,-2.17969 c 1.67094,-1.64123 18.73402,-4.92947 19.69921,-3.83594 0.56947,0.64518 2.26769,5.18388 3.77344,10.08594 3.77944,12.3042 10.49276,23.95681 18.20508,31.59961 0.43871,0.43475 0.86815,0.85482 1.2832,1.25391 0.0496,0.0477 0.0894,0.0817 0.13867,0.1289 -30.20059,4.77721 -59.49576,18.09656 -56.46093,26.22266 0.81661,2.18654 2.66111,2.56864 9.82812,2.03906 6.95382,-0.51384 13.90014,-3.19293 32.8125,-12.65234 41.33285,-20.67348 60.25889,-23.92256 92.56445,-15.89063 20.9051,5.19749 25.95741,4.92913 40.46876,-2.16015 10.56884,-5.16324 21.24461,-15.55449 21.29101,-20.72266 0.0621,-6.91799 -2.83557,-9.60974 -10.41406,-9.67774 -9.33002,-0.0838 -20.39592,4.06319 -41.42969,15.52344 -15.92602,8.67728 -18.09314,9.40401 -30.79883,10.3418 -7.5168,0.55481 -20.67341,1.96408 -29.23828,3.13281 -8.56487,1.1687 -19.1225,2.56743 -23.46094,3.10742 -0.77108,0.096 -1.54274,0.20264 -2.31445,0.31055 -0.93837,-1.71372 -2.05414,-3.69242 -3.32226,-5.8418 -15.5636,-26.37905 -24.07895,-64.52358 -16.46485,-73.75586 2.98161,-3.61524 3.40763,-3.67602 10.92188,-1.54296 24.64445,6.99576 68.0669,2.9776 93.22461,-8.62696 4.2738,-1.97138 7.55723,-3.80324 7.29492,-4.07031 -0.26232,-0.26707 -4.83617,0.94258 -10.16211,2.6875 -23.06571,7.55689 -63.85745,10.43333 -80.05469,5.64453 -9.05557,-2.67733 -17.36713,-8.95483 -18.5957,-14.04297 -3.01465,-12.48502 19.13627,-23.28747 47.23437,-23.03515 l 10.36914,0.0937 -4.61718,6.82617 c -2.53942,3.75471 -5.39365,9.06722 -6.3418,11.80469 -1.6974,4.9007 -1.13371,13.6749 0.86719,13.5 0.56343,-0.0493 3.23262,-3.05527 5.93164,-6.67969 2.69903,-3.62445 8.56519,-8.94357 13.03515,-11.82031 24.56367,-15.80859 30.87525,-24.12137 30.93555,-40.7461 l 4.53516,-1.95703 c 16.87825,-11.25332 35.91848,-16.95663 54.87304,-17.35156 z"
       id="path4249"
       inkscape:connector-curvature="0"
       sodipodi:nodetypes="sssscccssscccssssscccsccsaaaasssscccsscsccssssscccsscccscsssccsscccsssccssssssssssscsssscssscccscssccscc" />
  </g>
</svg>
